<svg width="128" height="139" viewBox="0 0 128 139" fill="none" xmlns="http://www.w3.org/2000/svg">
<path d="M48.9721 81.4439C48.2755 81.2313 47.5948 80.9872 46.9378 80.7117C47.4444 80.8612 47.9588 81.003 48.4892 81.1211C48.7346 81.1683 48.8929 81.2707 48.9721 81.4439Z" fill="#575757"/>
<path d="M64.0666 22.1483C45.7109 22.1483 30.8143 36.9584 30.8143 55.2171C30.8143 57.5083 30.8065 56.4612 30.9806 58.6422H59.6577V88.0813C60.9083 88.223 62.7842 88.2939 64.0666 88.2939C82.4301 88.2939 97.3109 73.4916 97.3109 55.2171C97.3109 36.9505 82.4301 22.1483 64.0666 22.1483ZM60.9004 28.5731C63.1563 28.5731 64.9689 30.384 64.9689 32.6201C64.9689 34.8562 63.1485 36.6671 60.9004 36.6671C58.6524 36.6671 56.832 34.8562 56.832 32.6201C56.8241 30.384 58.6524 28.5731 60.9004 28.5731ZM42.8852 50.3041C40.6293 50.3041 38.8168 48.4932 38.8168 46.2571C38.8168 44.021 40.6372 42.2101 42.8852 42.2101C45.1332 42.2101 46.9537 44.021 46.9537 46.2571C46.9615 48.4853 45.1331 50.3041 42.8852 50.3041ZM63.4729 62.9804C63.3067 62.9804 63.1484 62.9726 62.9901 62.9647V55.1069L55.1778 55.1069C55.1539 54.8313 55.1381 54.5636 55.1381 54.2723C55.1381 49.4694 59.0483 45.572 63.8845 45.572C68.7208 45.572 72.631 49.4694 72.631 54.2723C72.631 59.083 68.3091 62.9804 63.4729 62.9804ZM71.6653 81.4439C69.4173 81.4439 67.5968 79.633 67.5968 77.3969C67.5968 75.153 69.4173 73.3499 71.6653 73.3499C73.9133 73.3499 75.7337 75.1608 75.7337 77.3969C75.7337 79.6251 73.9133 81.4439 71.6653 81.4439ZM78.8682 42.2022C78.8682 39.9661 80.6887 38.1552 82.9367 38.1552C85.1846 38.1552 87.0051 39.9661 87.0051 42.2022C87.0051 44.4383 85.1846 46.2492 82.9367 46.2492C80.6887 46.2492 78.8682 44.4383 78.8682 42.2022ZM86.4669 66.1298C84.2111 66.1298 82.3985 64.319 82.3985 62.0828C82.3985 59.8468 84.2189 58.0359 86.4669 58.0359C88.7149 58.0359 90.5354 59.8468 90.5354 62.0828C90.5354 64.3189 88.7149 66.1298 86.4669 66.1298Z" fill="url(#paint0_linear_18_116)"/>
<path d="M34.2021 71.2319C34.9778 72.9168 36.0068 74.2081 36.4896 74.7592C36.4263 74.8222 36.363 74.8773 36.3075 74.9403C34.7482 72.7357 33.458 70.3422 32.4765 67.7912L32.5874 67.7912C33.0386 68.9644 33.5768 70.1139 34.1942 71.2004C34.1942 71.2162 34.1942 71.2241 34.2021 71.2319Z" fill="#0E92BF"/>
<path d="M23.5243 20.2271V83.8295L0.0237778 72.1845V61.831L7.48789 54.4613L0.0237778 46.5878V36.5254L7.48789 29.1636L0.0237778 21.3452V18.2588H0.0317026L0 0.811005L23.5086 19.983L23.5006 20.2271H23.5243Z" fill="url(#paint1_linear_18_116)"/>
<path d="M127.041 79.9244V89.9867L63.8687 123.182L0 90.0182V79.9244L63.9795 111.663L127.041 79.9244Z" fill="url(#paint2_linear_18_116)"/>
<path d="M127.041 94.8604V106.923L63.9795 138.653L0 106.923V94.8919L63.8608 128.055L127.041 94.8604Z" fill="url(#paint3_linear_18_116)"/>
<path d="M103.247 19.4162V83.0186L126.748 71.3736V61.02L119.284 53.6503L126.748 45.7768V35.7143L119.284 28.3526L126.748 20.5343V17.4478H126.74L126.772 0L103.263 19.172L103.279 19.4162H103.247Z" fill="url(#paint4_linear_18_116)"/>
<path d="M54.4336 63.6812V89.6324H49.4391V89.0813C49.4391 88.0262 49.4311 86.9632 49.4391 85.9003C46.7479 84.6484 44.2466 83.0422 42.0145 81.1526C40.8193 82.3651 39.6161 83.554 38.413 84.7508C38.318 84.8452 38.2151 84.9398 38.1281 85.0106C36.1334 83.0265 34.1545 81.0581 32.1124 79.0267C33.5213 77.6567 34.9223 76.2945 36.3154 74.9403C36.3787 74.8773 36.442 74.8143 36.4975 74.7592C36.0067 74.2081 34.9856 72.9168 34.21 71.2319C34.202 71.224 34.202 71.2162 34.202 71.2082C33.5925 70.1138 33.0464 68.9722 32.5952 67.799H32.4845C30.8222 67.8069 29.1601 67.799 27.4662 67.799V63.6891H54.4336V63.6812Z" fill="#0E92BF"/>
<defs>
<linearGradient id="paint0_linear_18_116" x1="30.1916" y1="54.6941" x2="96.6448" y2="54.6941" gradientUnits="userSpaceOnUse">
<stop stop-color="#575757"/>
<stop offset="1" stop-color="#585959"/>
</linearGradient>
<linearGradient id="paint1_linear_18_116" x1="11.1645" y1="0.364736" x2="11.1645" y2="83.0308" gradientUnits="userSpaceOnUse">
<stop stop-color="#575757"/>
<stop offset="1" stop-color="#585959"/>
</linearGradient>
<linearGradient id="paint2_linear_18_116" x1="-0.709195" y1="101.144" x2="126.72" y2="101.144" gradientUnits="userSpaceOnUse">
<stop stop-color="#575757"/>
<stop offset="1" stop-color="#585959"/>
</linearGradient>
<linearGradient id="paint3_linear_18_116" x1="-0.709195" y1="116.101" x2="126.72" y2="116.101" gradientUnits="userSpaceOnUse">
<stop stop-color="#575757"/>
<stop offset="1" stop-color="#585959"/>
</linearGradient>
<linearGradient id="paint4_linear_18_116" x1="114.851" y1="-0.42921" x2="114.851" y2="82.2482" gradientUnits="userSpaceOnUse">
<stop stop-color="#575757"/>
<stop offset="1" stop-color="#585959"/>
</linearGradient>
</defs>
</svg>
